<svg width="1440" height="1024" viewBox="0 0 1440 1024" fill="none" xmlns="http://www.w3.org/2000/svg">
<rect width="1440" height="1024" fill="white"/>
<path d="M142.134 527.3C140.8 527.3 140.134 526.667 140.134 525.4C140.134 525.067 140.267 524.567 140.534 523.9C140.867 523.3 141.334 522.433 141.934 521.3L147.634 510.7C150.7 505.167 153.367 500.1 155.634 495.5C157.967 490.833 159.967 486.667 161.634 483C166.634 471.6 169.134 462.967 169.134 457.1C169.134 456.7 169.4 456.233 169.934 455.7C170.534 455.167 171.1 454.9 171.634 454.9C172.434 454.9 172.834 455.667 172.834 457.2C172.834 461.533 171.267 468.1 168.134 476.9C166.867 480.233 165.567 483.467 164.234 486.6C162.9 489.733 161.5 492.767 160.034 495.7C162.9 492.233 165.867 488.867 168.934 485.6C172 482.333 175.2 479.167 178.534 476.1C188.4 466.833 195.6 462.2 200.134 462.2C203 462.2 204.434 464.067 204.434 467.8C204.434 471.8 202.467 479 198.534 489.4C193.467 502.467 190.667 509.967 190.134 511.9C205.267 493.567 220.667 480.2 236.334 471.8C238.467 470.667 240.7 469.567 243.034 468.5C245.434 467.367 247.267 466.8 248.534 466.8C250.4 466.8 251.334 467.933 251.334 470.2C251.334 471.333 251.134 472.7 250.734 474.3C250.334 475.9 249.667 477.667 248.734 479.6L239.534 499.1C238.667 500.967 237.7 503.033 236.634 505.3C235.634 507.567 234.667 509.833 233.734 512.1C232.867 514.3 232.134 516.3 231.534 518.1C230.934 519.833 230.634 521.167 230.634 522.1C230.634 523.167 231.067 523.7 231.934 523.7C233.267 523.7 234.934 522.9 236.934 521.3C239 519.7 241.2 517.667 243.534 515.2C243.867 514.8 244.3 514.333 244.834 513.8C245.434 513.267 245.967 513 246.434 513C247.5 513 248.034 513.6 248.034 514.8C248.034 515 247.967 515.233 247.834 515.5C247.7 515.7 247.4 516.033 246.934 516.5C246.067 517.367 245.2 518.233 244.334 519.1C243.467 519.967 242.667 520.733 241.934 521.4C240.2 522.867 238.367 524.167 236.434 525.3C234.567 526.5 232.767 527.1 231.034 527.1C228.3 527.1 226.934 525.567 226.934 522.5C226.934 520.633 227.6 517.733 228.934 513.8C230.267 509.867 232.3 504.9 235.034 498.9L245.534 476.1C246.267 474.567 246.734 473.5 246.934 472.9C247.134 472.233 247.234 471.767 247.234 471.5C247.234 471.1 247.067 470.9 246.734 470.9C246.6 470.9 246.234 471 245.634 471.2C245.1 471.333 244.134 471.733 242.734 472.4C238.667 474.267 234.2 476.767 229.334 479.9C224.467 483.033 219.934 486.433 215.734 490.1C212.334 493.033 209.3 495.833 206.634 498.5C203.967 501.167 201.367 503.933 198.834 506.8C196.3 509.667 193.5 512.933 190.434 516.6C189.567 517.6 188.967 518.3 188.634 518.7C188.3 519.033 187.767 519.2 187.034 519.2C185.9 519.2 185.334 518.6 185.334 517.4C185.334 516.133 185.6 514.467 186.134 512.4C186.667 510.333 187.334 508.233 188.134 506.1L195.534 486.3C197.334 481.433 198.667 477.4 199.534 474.2C200.4 471 200.834 468.6 200.834 467C200.834 465.667 200.267 465 199.134 465C196.934 465 191.967 468.533 184.234 475.6C181.567 478.067 179.067 480.433 176.734 482.7C174.4 484.967 172.267 487.167 170.334 489.3C167.734 492.1 165.367 494.767 163.234 497.3C161.1 499.833 159.034 502.467 157.034 505.2C155.1 507.867 153.1 510.833 151.034 514.1C148.967 517.367 146.734 521.167 144.334 525.5C143.667 526.7 142.934 527.3 142.134 527.3ZM266.315 521.5C260.915 521.5 258.215 518.467 258.215 512.4C258.215 509.6 258.882 506.667 260.215 503.6C261.548 500.533 263.315 497.7 265.515 495.1C267.715 492.433 270.148 490.267 272.815 488.6C275.548 486.933 278.315 486.1 281.115 486.1C283.582 486.1 285.382 487.033 286.515 488.9C287.648 490.767 288.215 492.833 288.215 495.1C288.215 498.1 287.615 501.167 286.415 504.3C285.215 507.367 283.582 510.2 281.515 512.8C279.448 515.4 277.115 517.5 274.515 519.1C271.915 520.7 269.182 521.5 266.315 521.5ZM266.215 518.3C266.615 518.3 266.848 518.267 266.915 518.2C269.515 517.867 271.915 516.933 274.115 515.4C276.315 513.867 278.215 511.967 279.815 509.7C281.482 507.367 282.748 504.867 283.615 502.2C284.482 499.533 284.915 496.9 284.915 494.3C284.915 492.767 284.482 491.567 283.615 490.7C282.748 489.833 281.648 489.4 280.315 489.4C278.382 489.4 276.315 490.2 274.115 491.8C271.982 493.4 269.948 495.433 268.015 497.9C266.148 500.367 264.615 502.967 263.415 505.7C262.215 508.367 261.615 510.767 261.615 512.9C261.615 516.5 263.148 518.3 266.215 518.3ZM297.316 523C296.516 523 296.116 522.7 296.116 522.1C295.049 520.233 294.516 516.4 294.516 510.6C294.516 509.2 294.616 507.333 294.816 505C295.016 502.667 295.282 500.233 295.616 497.7C295.949 495.167 296.316 492.867 296.716 490.8C297.116 488.667 297.549 487.133 298.016 486.2C298.416 485.4 298.916 485 299.516 485C300.582 485 301.116 485.433 301.116 486.3C301.116 486.767 301.049 487.233 300.916 487.7C300.782 488.1 300.649 488.6 300.516 489.2C299.649 492.533 298.949 496.067 298.416 499.8C297.949 503.533 297.716 507.367 297.716 511.3C297.716 513.1 297.782 514.7 297.916 516.1C298.116 517.5 298.316 518.7 298.516 519.7C300.382 518.967 302.449 517.533 304.716 515.4C306.982 513.2 309.182 510.767 311.316 508.1C313.049 505.9 314.616 503.667 316.016 501.4C317.482 499.133 318.616 497 319.416 495C320.282 493 320.716 491.367 320.716 490.1C320.716 489.233 320.616 488.633 320.416 488.3C320.282 487.967 320.116 487.7 319.916 487.5C319.716 487.3 319.616 486.933 319.616 486.4C319.616 485.4 320.116 484.9 321.116 484.9C321.782 484.9 322.382 485.4 322.916 486.4C323.449 487.4 323.716 488.667 323.716 490.2C323.716 494.933 320.416 501.567 313.816 510.1C307.016 518.7 301.516 523 297.316 523ZM345.34 482.6C344.207 482.6 343.64 482.033 343.64 480.9C343.64 480.567 343.873 479.967 344.34 479.1C344.807 478.167 345.34 477.233 345.94 476.3C346.54 475.367 347.007 474.733 347.34 474.4C348.473 473.133 349.34 472.333 349.94 472C350.607 471.667 351.207 471.5 351.74 471.5C353.14 471.5 353.84 472.133 353.84 473.4C353.84 473.867 353.54 474.433 352.94 475.1C352.407 475.7 351.773 476.267 351.04 476.8C349.973 477.467 349.307 478 349.04 478.4L346.84 481.5C346.773 481.767 346.607 482.033 346.34 482.3C346.14 482.5 345.807 482.6 345.34 482.6ZM328.34 523.1C326.473 523.1 325.107 522.733 324.24 522C323.44 521.267 323.04 520.167 323.04 518.7C323.04 517.3 323.473 515.4 324.34 513C325.207 510.533 326.307 507.9 327.64 505.1C329.04 502.3 330.507 499.633 332.04 497.1C333.573 494.567 335.04 492.5 336.44 490.9C337.907 489.233 339.073 488.4 339.94 488.4C341.14 488.4 341.74 488.933 341.74 490C341.74 490.667 341.173 491.933 340.04 493.8C338.907 495.667 337.673 497.6 336.34 499.6C335.807 500.333 335.073 501.333 334.14 502.6C333.207 503.867 332.307 505.067 331.44 506.2C330.573 507.267 330.007 508 329.74 508.4C329.073 509.4 328.373 511.033 327.64 513.3C326.84 515.567 326.44 517.3 326.44 518.5C326.44 519.033 326.54 519.433 326.74 519.7C327.007 519.967 327.573 520.1 328.44 520.1C330.107 520.1 331.973 519.567 334.04 518.5C336.107 517.433 338.207 516.1 340.34 514.5C342.473 512.833 344.473 511.133 346.34 509.4C348.273 507.667 349.907 506.167 351.24 504.9C351.507 504.633 351.907 504.5 352.44 504.5C353.44 504.5 353.94 504.9 353.94 505.7C353.94 506.433 353.473 507.267 352.54 508.2C350.74 510 349.073 511.6 347.54 513C346.007 514.4 344.54 515.633 343.14 516.7C340.94 518.3 338.507 519.767 335.84 521.1C333.173 522.433 330.673 523.1 328.34 523.1ZM358.254 523.8C355.454 523.8 353.254 522.833 351.654 520.9C350.054 518.967 349.254 516.6 349.254 513.8C349.254 509 350.854 504.067 354.054 499C354.921 497.6 355.921 496.233 357.054 494.9C358.187 493.5 359.421 492.167 360.754 490.9C362.754 488.967 364.854 487.367 367.054 486.1C369.254 484.833 371.387 484.2 373.454 484.2C376.854 484.2 378.554 485.8 378.554 489C378.554 493 376.221 496.633 371.554 499.9C367.221 502.833 362.954 504.3 358.754 504.3C358.021 504.3 357.354 504.267 356.754 504.2C356.221 504.067 355.721 503.933 355.254 503.8C354.587 505.067 353.987 506.7 353.454 508.7C352.921 510.7 352.654 512.433 352.654 513.9C352.654 518.3 354.587 520.5 358.454 520.5C361.587 520.5 364.554 519.967 367.354 518.9C370.154 517.767 373.487 515.667 377.354 512.6C379.754 510.733 381.554 509.233 382.754 508.1C383.954 506.967 385.254 505.767 386.654 504.5C387.054 504.233 387.421 504.1 387.754 504.1C388.087 504.1 388.421 504.2 388.754 504.4C389.087 504.6 389.254 504.9 389.254 505.3C389.254 506.033 388.587 507.067 387.254 508.4C386.121 509.467 384.921 510.6 383.654 511.8C382.387 512.933 380.387 514.533 377.654 516.6C374.721 518.867 371.521 520.633 368.054 521.9C364.587 523.167 361.321 523.8 358.254 523.8ZM358.154 501.1C360.287 501.1 362.321 500.767 364.254 500.1C366.187 499.433 368.021 498.467 369.754 497.2C373.621 494.333 375.554 491.633 375.554 489.1C375.554 487.967 374.854 487.4 373.454 487.4C370.787 487.4 367.687 489.033 364.154 492.3C362.421 493.9 360.987 495.367 359.854 496.7C358.787 497.967 357.787 499.367 356.854 500.9C357.254 501.033 357.687 501.1 358.154 501.1ZM407.628 524.9C406.295 524.9 405.628 524.333 405.628 523.2C405.628 522.267 407.395 518.2 410.928 511C413.861 505.067 416.061 500.767 417.528 498.1C416.861 497.833 416.528 497.3 416.528 496.5C416.528 495.9 416.861 495.433 417.528 495.1C418.195 494.767 418.828 494.467 419.428 494.2C421.961 489.867 424.295 486 426.428 482.6C428.561 479.133 430.461 476.133 432.128 473.6C435.395 468.6 438.161 464.6 440.428 461.6C442.695 458.6 444.495 456.6 445.828 455.6C446.828 455.333 449.428 455.2 453.628 455.2C460.961 455.2 466.728 456.333 470.928 458.6C475.128 460.8 477.228 463.7 477.228 467.3C477.228 473.233 472.761 478.6 463.828 483.4C457.961 486.6 450.795 489.2 442.328 491.2C445.261 491.6 447.895 492.367 450.228 493.5C452.628 494.567 454.528 496.033 455.928 497.9C457.395 499.7 458.128 501.933 458.128 504.6C458.128 506.4 457.728 508.4 456.928 510.6C456.195 512.733 455.228 514.833 454.028 516.9C452.828 518.9 451.561 520.667 450.228 522.2C449.695 522.867 448.995 523.2 448.128 523.2C446.995 523.2 446.428 522.833 446.428 522.1C446.428 521.833 446.628 521.5 447.028 521.1C447.428 520.633 447.861 520.067 448.328 519.4C448.928 518.533 449.661 517.267 450.528 515.6C451.395 513.933 452.161 512.133 452.828 510.2C453.561 508.267 453.928 506.467 453.928 504.8C453.928 502.133 453.128 499.967 451.528 498.3C449.995 496.633 447.995 495.433 445.528 494.7C443.061 493.9 440.461 493.5 437.728 493.5C432.995 493.5 427.861 494.5 422.328 496.5C420.661 499.567 419.028 502.6 417.428 505.6C415.895 508.6 414.461 511.6 413.128 514.6C412.661 515.667 412.095 517 411.428 518.6C410.761 520.133 409.961 521.933 409.028 524C408.761 524.6 408.295 524.9 407.628 524.9ZM424.428 492.7C426.695 492.033 428.561 491.6 430.028 491.4C431.561 491.133 433.261 490.9 435.128 490.7C435.461 490.633 436.395 490.367 437.928 489.9C439.528 489.367 441.761 488.667 444.628 487.8C447.961 486.733 450.995 485.633 453.728 484.5C456.461 483.367 458.895 482.233 461.028 481.1C469.028 476.767 473.028 472.167 473.028 467.3C473.028 465.7 472.361 464.333 471.028 463.2C469.761 462.067 468.095 461.167 466.028 460.5C464.028 459.767 461.861 459.233 459.528 458.9C457.195 458.567 455.028 458.4 453.028 458.4C451.961 458.4 450.995 458.467 450.128 458.6C449.261 458.667 448.461 458.767 447.728 458.9C444.261 462.967 440.828 467.4 437.428 472.2C434.095 476.933 431.161 481.467 428.628 485.8C427.428 487.867 426.561 489.367 426.028 490.3C425.495 491.167 424.961 491.967 424.428 492.7ZM483.352 523.8C480.552 523.8 478.352 522.833 476.752 520.9C475.152 518.967 474.352 516.6 474.352 513.8C474.352 509 475.952 504.067 479.152 499C480.018 497.6 481.018 496.233 482.152 494.9C483.285 493.5 484.518 492.167 485.852 490.9C487.852 488.967 489.952 487.367 492.152 486.1C494.352 484.833 496.485 484.2 498.552 484.2C501.952 484.2 503.652 485.8 503.652 489C503.652 493 501.318 496.633 496.652 499.9C492.318 502.833 488.052 504.3 483.852 504.3C483.118 504.3 482.452 504.267 481.852 504.2C481.318 504.067 480.818 503.933 480.352 503.8C479.685 505.067 479.085 506.7 478.552 508.7C478.018 510.7 477.752 512.433 477.752 513.9C477.752 518.3 479.685 520.5 483.552 520.5C486.685 520.5 489.652 519.967 492.452 518.9C495.252 517.767 498.585 515.667 502.452 512.6C504.852 510.733 506.652 509.233 507.852 508.1C509.052 506.967 510.352 505.767 511.752 504.5C512.152 504.233 512.518 504.1 512.852 504.1C513.185 504.1 513.518 504.2 513.852 504.4C514.185 504.6 514.352 504.9 514.352 505.3C514.352 506.033 513.685 507.067 512.352 508.4C511.218 509.467 510.018 510.6 508.752 511.8C507.485 512.933 505.485 514.533 502.752 516.6C499.818 518.867 496.618 520.633 493.152 521.9C489.685 523.167 486.418 523.8 483.352 523.8ZM483.252 501.1C485.385 501.1 487.418 500.767 489.352 500.1C491.285 499.433 493.118 498.467 494.852 497.2C498.718 494.333 500.652 491.633 500.652 489.1C500.652 487.967 499.952 487.4 498.552 487.4C495.885 487.4 492.785 489.033 489.252 492.3C487.518 493.9 486.085 495.367 484.952 496.7C483.885 497.967 482.885 499.367 481.952 500.9C482.352 501.033 482.785 501.1 483.252 501.1ZM520.808 523.4C517.274 523.4 514.508 522.367 512.508 520.3C510.508 518.233 509.508 515.467 509.508 512C509.508 506 512.341 499.467 518.008 492.4C520.941 488.8 523.908 486.067 526.908 484.2C529.974 482.267 532.841 481.3 535.508 481.3C537.841 481.3 539.641 482.1 540.908 483.7C542.174 485.3 542.808 487.3 542.808 489.7C542.808 491.167 542.608 492.667 542.208 494.2C541.941 495.267 541.408 495.8 540.608 495.8C539.341 495.8 538.708 495.1 538.708 493.7C538.708 493.1 538.808 492.333 539.008 491.4C539.274 490.4 539.408 489.433 539.408 488.5C539.408 485.833 538.108 484.5 535.508 484.5C534.108 484.5 532.408 485 530.408 486C528.474 487 526.541 488.333 524.608 490C522.674 491.6 520.974 493.433 519.508 495.5C515.041 501.567 512.808 507 512.808 511.8C512.808 517.333 515.308 520.1 520.308 520.1C523.441 520.1 526.441 519.633 529.308 518.7C532.174 517.7 535.541 515.667 539.408 512.6C541.808 510.733 543.608 509.233 544.808 508.1C546.008 506.967 547.308 505.767 548.708 504.5C549.108 504.233 549.474 504.1 549.808 504.1C550.141 504.1 550.474 504.2 550.808 504.4C551.141 504.6 551.308 504.9 551.308 505.3C551.308 506.033 550.641 507.067 549.308 508.4C548.174 509.467 546.974 510.6 545.708 511.8C544.441 512.933 542.441 514.533 539.708 516.6C536.774 518.867 533.641 520.567 530.308 521.7C527.041 522.833 523.874 523.4 520.808 523.4ZM555.573 521.5C550.173 521.5 547.473 518.467 547.473 512.4C547.473 509.6 548.139 506.667 549.473 503.6C550.806 500.533 552.573 497.7 554.773 495.1C556.973 492.433 559.406 490.267 562.073 488.6C564.806 486.933 567.573 486.1 570.373 486.1C572.839 486.1 574.639 487.033 575.773 488.9C576.906 490.767 577.473 492.833 577.473 495.1C577.473 498.1 576.873 501.167 575.673 504.3C574.473 507.367 572.839 510.2 570.773 512.8C568.706 515.4 566.373 517.5 563.773 519.1C561.173 520.7 558.439 521.5 555.573 521.5ZM555.473 518.3C555.873 518.3 556.106 518.267 556.173 518.2C558.773 517.867 561.173 516.933 563.373 515.4C565.573 513.867 567.473 511.967 569.073 509.7C570.739 507.367 572.006 504.867 572.873 502.2C573.739 499.533 574.173 496.9 574.173 494.3C574.173 492.767 573.739 491.567 572.873 490.7C572.006 489.833 570.906 489.4 569.573 489.4C567.639 489.4 565.573 490.2 563.373 491.8C561.239 493.4 559.206 495.433 557.273 497.9C555.406 500.367 553.873 502.967 552.673 505.7C551.473 508.367 550.873 510.767 550.873 512.9C550.873 516.5 552.406 518.3 555.473 518.3ZM577.373 525.4C576.24 525.4 575.673 524.867 575.673 523.8C575.673 523.733 576.073 522.9 576.873 521.3C577.673 519.7 578.807 517.333 580.273 514.2L585.373 503.5C587.44 499.167 588.907 495.733 589.773 493.2C590.707 490.667 591.173 489.033 591.173 488.3C591.173 487.233 591.707 486.7 592.773 486.7C593.84 486.7 594.373 487.233 594.373 488.3C594.373 489.167 594.073 490.533 593.473 492.4C592.94 494.2 592.04 496.533 590.773 499.4L585.673 511C599.607 493.4 610.107 484.6 617.173 484.6C618.507 484.6 619.54 485.167 620.273 486.3C621.007 487.367 621.373 488.567 621.373 489.9C621.373 493.1 619.073 498.667 614.473 506.6C618.007 503 621.573 499.4 625.173 495.8C628.84 492.133 632.507 488.533 636.173 485C637.107 484.133 637.873 483.7 638.473 483.7C639.273 483.7 639.94 484.1 640.473 484.9C641.007 485.633 641.273 486.433 641.273 487.3C641.273 487.967 640.973 488.8 640.373 489.8C639.507 491.267 638.707 493.033 637.973 495.1C637.24 497.1 636.407 499.367 635.473 501.9C634.407 504.767 633.64 507.267 633.173 509.4C632.707 511.533 632.473 513.267 632.473 514.6C632.473 516.267 632.873 517.5 633.673 518.3C634.473 519.033 635.273 519.4 636.073 519.4C637.473 519.4 639.007 519.033 640.673 518.3C642.34 517.567 643.707 516.833 644.773 516.1C646.907 514.7 649.14 512.967 651.473 510.9C653.807 508.767 656.04 506.633 658.173 504.5C658.44 504.233 658.84 504.1 659.373 504.1C660.373 504.1 660.873 504.5 660.873 505.3C660.873 506.033 660.407 506.867 659.473 507.8C656.807 510.467 654.407 512.767 652.273 514.7C650.14 516.567 648.107 518.1 646.173 519.3C644.907 520.033 643.373 520.8 641.573 521.6C639.773 522.4 637.84 522.8 635.773 522.8C633.84 522.8 632.207 522.2 630.873 521C629.607 519.8 628.973 517.233 628.973 513.3C628.973 511.767 629.24 509.967 629.773 507.9C630.307 505.767 631.107 503.4 632.173 500.8L637.473 488.2L623.173 502.6C621.507 504.267 620.14 505.667 619.073 506.8C618.007 507.933 617.14 508.867 616.473 509.6C615.207 510.933 614.073 512.233 613.073 513.5C612.14 514.767 611.34 515.867 610.673 516.8C610.207 517.533 609.673 517.9 609.073 517.9C607.94 517.9 607.373 517.433 607.373 516.5C607.373 514.433 609.24 509.667 612.973 502.2C616.707 494.733 618.573 490.267 618.573 488.8C618.573 488.133 617.84 487.8 616.373 487.8C610.44 487.8 599.873 497.5 584.673 516.9C583.407 518.7 581.307 521.4 578.373 525C578.173 525.267 577.84 525.4 577.373 525.4ZM651.495 525.4C650.361 525.4 649.795 524.867 649.795 523.8C649.795 523.733 650.195 522.9 650.995 521.3C651.795 519.7 652.928 517.333 654.395 514.2L659.495 503.5C661.561 499.167 663.028 495.733 663.895 493.2C664.828 490.667 665.295 489.033 665.295 488.3C665.295 487.233 665.828 486.7 666.895 486.7C667.961 486.7 668.495 487.233 668.495 488.3C668.495 489.167 668.195 490.533 667.595 492.4C667.061 494.2 666.161 496.533 664.895 499.4L659.795 511C673.728 493.4 684.228 484.6 691.295 484.6C692.628 484.6 693.661 485.167 694.395 486.3C695.128 487.367 695.495 488.567 695.495 489.9C695.495 493.1 693.195 498.667 688.595 506.6C692.128 503 695.695 499.4 699.295 495.8C702.961 492.133 706.628 488.533 710.295 485C711.228 484.133 711.995 483.7 712.595 483.7C713.395 483.7 714.061 484.1 714.595 484.9C715.128 485.633 715.395 486.433 715.395 487.3C715.395 487.967 715.095 488.8 714.495 489.8C713.628 491.267 712.828 493.033 712.095 495.1C711.361 497.1 710.528 499.367 709.595 501.9C708.528 504.767 707.761 507.267 707.295 509.4C706.828 511.533 706.595 513.267 706.595 514.6C706.595 516.267 706.995 517.5 707.795 518.3C708.595 519.033 709.395 519.4 710.195 519.4C711.595 519.4 713.128 519.033 714.795 518.3C716.461 517.567 717.828 516.833 718.895 516.1C721.028 514.7 723.261 512.967 725.595 510.9C727.928 508.767 730.161 506.633 732.295 504.5C732.561 504.233 732.961 504.1 733.495 504.1C734.495 504.1 734.995 504.5 734.995 505.3C734.995 506.033 734.528 506.867 733.595 507.8C730.928 510.467 728.528 512.767 726.395 514.7C724.261 516.567 722.228 518.1 720.295 519.3C719.028 520.033 717.495 520.8 715.695 521.6C713.895 522.4 711.961 522.8 709.895 522.8C707.961 522.8 706.328 522.2 704.995 521C703.728 519.8 703.095 517.233 703.095 513.3C703.095 511.767 703.361 509.967 703.895 507.9C704.428 505.767 705.228 503.4 706.295 500.8L711.595 488.2L697.295 502.6C695.628 504.267 694.261 505.667 693.195 506.8C692.128 507.933 691.261 508.867 690.595 509.6C689.328 510.933 688.195 512.233 687.195 513.5C686.261 514.767 685.461 515.867 684.795 516.8C684.328 517.533 683.795 517.9 683.195 517.9C682.061 517.9 681.495 517.433 681.495 516.5C681.495 514.433 683.361 509.667 687.095 502.2C690.828 494.733 692.695 490.267 692.695 488.8C692.695 488.133 691.961 487.8 690.495 487.8C684.561 487.8 673.995 497.5 658.795 516.9C657.528 518.7 655.428 521.4 652.495 525C652.295 525.267 651.961 525.4 651.495 525.4ZM739.016 523.8C736.216 523.8 734.016 522.833 732.416 520.9C730.816 518.967 730.016 516.6 730.016 513.8C730.016 509 731.616 504.067 734.816 499C735.682 497.6 736.682 496.233 737.816 494.9C738.949 493.5 740.182 492.167 741.516 490.9C743.516 488.967 745.616 487.367 747.816 486.1C750.016 484.833 752.149 484.2 754.216 484.2C757.616 484.2 759.316 485.8 759.316 489C759.316 493 756.982 496.633 752.316 499.9C747.982 502.833 743.716 504.3 739.516 504.3C738.782 504.3 738.116 504.267 737.516 504.2C736.982 504.067 736.482 503.933 736.016 503.8C735.349 505.067 734.749 506.7 734.216 508.7C733.682 510.7 733.416 512.433 733.416 513.9C733.416 518.3 735.349 520.5 739.216 520.5C742.349 520.5 745.316 519.967 748.116 518.9C750.916 517.767 754.249 515.667 758.116 512.6C760.516 510.733 762.316 509.233 763.516 508.1C764.716 506.967 766.016 505.767 767.416 504.5C767.816 504.233 768.182 504.1 768.516 504.1C768.849 504.1 769.182 504.2 769.516 504.4C769.849 504.6 770.016 504.9 770.016 505.3C770.016 506.033 769.349 507.067 768.016 508.4C766.882 509.467 765.682 510.6 764.416 511.8C763.149 512.933 761.149 514.533 758.416 516.6C755.482 518.867 752.282 520.633 748.816 521.9C745.349 523.167 742.082 523.8 739.016 523.8ZM738.916 501.1C741.049 501.1 743.082 500.767 745.016 500.1C746.949 499.433 748.782 498.467 750.516 497.2C754.382 494.333 756.316 491.633 756.316 489.1C756.316 487.967 755.616 487.4 754.216 487.4C751.549 487.4 748.449 489.033 744.916 492.3C743.182 493.9 741.749 495.367 740.616 496.7C739.549 497.967 738.549 499.367 737.616 500.9C738.016 501.033 738.449 501.1 738.916 501.1ZM760.672 524.5C759.605 524.5 759.072 524.067 759.072 523.2C759.072 522.867 759.205 522.467 759.472 522C759.739 521.467 759.972 521.033 760.172 520.7L769.172 502.6C773.039 494.733 774.972 490.367 774.972 489.5C774.972 488.567 775.439 488.1 776.372 488.1C777.639 488.1 778.272 488.767 778.272 490.1C778.272 490.567 777.972 491.567 777.372 493.1C776.772 494.633 776.005 496.367 775.072 498.3C773.472 501.767 772.139 504.433 771.072 506.3C773.072 503.967 775.105 501.767 777.172 499.7C779.239 497.633 781.339 495.667 783.472 493.8C789.805 488.267 794.672 485.5 798.072 485.5C800.405 485.5 801.572 486.6 801.572 488.8C801.572 490.8 799.872 495.3 796.472 502.3C793.072 509.367 791.372 513.833 791.372 515.7C791.372 516.567 791.672 517 792.272 517C792.472 517 792.772 516.933 793.172 516.8C793.639 516.6 794.105 516.5 794.572 516.5C795.705 516.5 796.272 517.033 796.272 518.1C796.272 519.433 794.839 520.1 791.972 520.1C790.639 520.1 789.672 519.8 789.072 519.2C788.472 518.533 788.172 517.667 788.172 516.6C788.172 513.4 789.805 508.533 793.072 502C796.339 495.533 797.972 491.633 797.972 490.3C797.972 489.5 797.672 489.1 797.072 489.1C795.605 489.1 793.239 490.333 789.972 492.8C786.439 495.467 782.905 498.533 779.372 502C775.839 505.467 772.472 509.433 769.272 513.9L762.272 523.6C761.872 524.2 761.339 524.5 760.672 524.5ZM836.218 530.9C835.685 530.9 835.018 530.633 834.218 530.1C833.485 529.633 832.918 529.167 832.518 528.7C831.718 527.7 831.185 526.5 830.918 525.1C830.651 523.7 830.518 522.167 830.518 520.5C830.518 519.1 830.551 517.6 830.618 516C830.751 514.333 830.951 512.567 831.218 510.7C829.485 512.7 827.518 514.667 825.318 516.6C823.185 518.467 820.985 520 818.718 521.2C816.518 522.4 814.418 523 812.418 523C807.418 523 804.918 520.333 804.918 515C804.918 509.467 806.851 504.133 810.718 499C812.651 496.467 814.851 494.033 817.318 491.7C819.785 489.367 822.385 487.467 825.118 486C827.851 484.533 830.551 483.8 833.218 483.8C835.218 483.8 836.985 484.567 838.518 486.1C838.651 485.833 838.818 485.4 839.018 484.8C839.285 484.2 839.651 483.433 840.118 482.5C841.718 479.033 843.485 475.433 845.418 471.7C847.351 467.9 849.085 464.767 850.618 462.3C852.351 459.567 853.985 458.2 855.518 458.2C856.585 458.2 857.118 459.033 857.118 460.7C857.118 463.567 854.418 470.267 849.018 480.8C848.685 481.4 848.085 482.5 847.218 484.1C846.418 485.633 845.451 487.433 844.318 489.5C843.251 491.5 842.151 493.5 841.018 495.5C839.885 497.5 838.851 499.3 837.918 500.9C837.051 502.433 836.418 503.5 836.018 504.1C835.285 507.1 834.718 509.967 834.318 512.7C833.918 515.367 833.718 518.133 833.718 521C833.718 522.067 833.751 523.033 833.818 523.9C833.951 524.833 834.218 525.567 834.618 526.1C834.951 526.5 835.318 526.8 835.718 527C836.118 527.267 836.585 527.5 837.118 527.7C837.918 527.9 838.318 528.367 838.318 529.1C838.318 530.3 837.618 530.9 836.218 530.9ZM840.918 489.1C843.451 484.767 845.685 480.733 847.618 477C849.551 473.2 851.118 469.633 852.318 466.3C849.651 469.767 847.418 473.433 845.618 477.3C843.818 481.167 842.251 485.1 840.918 489.1ZM811.718 520C813.651 520 815.685 519.367 817.818 518.1C820.018 516.767 822.085 515.2 824.018 513.4C825.751 511.8 827.351 510.167 828.818 508.5C830.285 506.767 831.651 505 832.918 503.2C833.451 500.867 834.051 498.567 834.718 496.3C835.451 494.033 836.251 491.767 837.118 489.5C836.051 487.833 834.551 487 832.618 487C830.618 487 828.385 487.767 825.918 489.3C823.518 490.767 821.185 492.6 818.918 494.8C816.718 497 814.818 499.1 813.218 501.1C809.885 505.567 808.218 510.3 808.218 515.3C808.218 518.433 809.385 520 811.718 520ZM850.015 523C846.148 523 844.215 521.167 844.215 517.5C844.215 515.1 844.782 512.533 845.915 509.8C847.115 507 848.715 504.3 850.715 501.7C852.715 499.033 854.948 496.633 857.415 494.5C859.882 492.3 862.415 490.567 865.015 489.3C867.615 487.967 870.115 487.3 872.515 487.3C876.782 487.3 878.915 489.4 878.915 493.6C878.915 496.333 878.248 497.7 876.915 497.7C875.715 497.7 875.115 497.133 875.115 496C875.115 495.533 875.215 495.067 875.415 494.6C875.682 494.067 875.815 493.5 875.815 492.9C875.815 491.033 874.548 490.1 872.015 490.1C867.948 490.1 862.848 493.2 856.715 499.4C855.248 500.933 853.815 502.733 852.415 504.8C851.015 506.867 849.848 508.967 848.915 511.1C848.048 513.167 847.615 515.133 847.615 517C847.615 518.8 848.615 519.7 850.615 519.7C852.348 519.7 854.182 519.167 856.115 518.1C858.115 517.033 859.848 515.933 861.315 514.8C864.248 512.6 867.248 509.6 870.315 505.8C870.782 505.267 871.382 504.567 872.115 503.7C872.848 502.833 873.682 501.867 874.615 500.8C874.948 500.467 875.348 500.3 875.815 500.3C876.882 500.3 877.415 500.833 877.415 501.9L873.615 507.6C871.082 511.333 869.815 514.4 869.815 516.8C869.815 518.533 870.648 519.4 872.315 519.4C873.715 519.4 875.248 519.033 876.915 518.3C878.582 517.567 879.948 516.833 881.015 516.1C883.148 514.7 885.382 512.967 887.715 510.9C890.048 508.767 892.282 506.633 894.415 504.5C894.682 504.233 895.082 504.1 895.615 504.1C896.615 504.1 897.115 504.5 897.115 505.3C897.115 506.033 896.648 506.867 895.715 507.8C893.048 510.467 890.648 512.767 888.515 514.7C886.382 516.567 884.348 518.1 882.415 519.3C881.148 520.033 879.582 520.8 877.715 521.6C875.848 522.4 873.715 522.8 871.315 522.8C868.048 522.8 866.415 521.067 866.415 517.6C866.415 516.267 866.582 515.167 866.915 514.3C860.848 520.1 855.215 523 850.015 523ZM891.225 528.9C889.958 528.9 889.325 527.9 889.325 525.9C889.325 522.967 890.958 517.833 894.225 510.5C897.558 503.167 902.492 493.567 909.025 481.7C906.492 481.7 904.092 482.033 901.825 482.7C899.625 483.3 898.458 484.067 898.325 485C898.258 485.267 898.092 485.533 897.825 485.8C897.625 486 897.292 486.1 896.825 486.1C895.758 486.1 895.225 485.567 895.225 484.5C895.225 482.767 896.592 481.333 899.325 480.2C902.058 479.067 905.892 478.5 910.825 478.5L917.725 467.1C918.192 466.367 918.692 465.567 919.225 464.7C919.758 463.767 920.358 462.767 921.025 461.7C921.692 460.767 922.458 460.3 923.325 460.3C923.858 460.3 924.258 460.467 924.525 460.8C924.792 461.067 924.925 461.367 924.925 461.7C924.925 462.7 923.458 465.367 920.525 469.7C916.858 475.1 914.892 478.033 914.625 478.5C915.625 478.5 917.125 478.6 919.125 478.8C921.125 478.933 923.492 479.167 926.225 479.5C927.225 479.567 927.725 480.067 927.725 481C927.725 482.067 927.125 482.6 925.925 482.6C925.458 482.6 924.525 482.533 923.125 482.4C921.725 482.2 920.225 482.033 918.625 481.9C917.025 481.767 915.658 481.733 914.525 481.8L913.025 481.9C899.492 505.7 892.758 520.5 892.825 526.3L892.925 527.1V527.3C892.925 528.367 892.358 528.9 891.225 528.9ZM935.477 482.6C934.343 482.6 933.777 482.033 933.777 480.9C933.777 480.567 934.01 479.967 934.477 479.1C934.943 478.167 935.477 477.233 936.077 476.3C936.677 475.367 937.143 474.733 937.477 474.4C938.61 473.133 939.477 472.333 940.077 472C940.743 471.667 941.343 471.5 941.877 471.5C943.277 471.5 943.977 472.133 943.977 473.4C943.977 473.867 943.677 474.433 943.077 475.1C942.543 475.7 941.91 476.267 941.177 476.8C940.11 477.467 939.443 478 939.177 478.4L936.977 481.5C936.91 481.767 936.743 482.033 936.477 482.3C936.277 482.5 935.943 482.6 935.477 482.6ZM918.477 523.1C916.61 523.1 915.243 522.733 914.377 522C913.577 521.267 913.177 520.167 913.177 518.7C913.177 517.3 913.61 515.4 914.477 513C915.343 510.533 916.443 507.9 917.777 505.1C919.177 502.3 920.643 499.633 922.177 497.1C923.71 494.567 925.177 492.5 926.577 490.9C928.043 489.233 929.21 488.4 930.077 488.4C931.277 488.4 931.877 488.933 931.877 490C931.877 490.667 931.31 491.933 930.177 493.8C929.043 495.667 927.81 497.6 926.477 499.6C925.943 500.333 925.21 501.333 924.277 502.6C923.343 503.867 922.443 505.067 921.577 506.2C920.71 507.267 920.143 508 919.877 508.4C919.21 509.4 918.51 511.033 917.777 513.3C916.977 515.567 916.577 517.3 916.577 518.5C916.577 519.033 916.677 519.433 916.877 519.7C917.143 519.967 917.71 520.1 918.577 520.1C920.243 520.1 922.11 519.567 924.177 518.5C926.243 517.433 928.343 516.1 930.477 514.5C932.61 512.833 934.61 511.133 936.477 509.4C938.41 507.667 940.043 506.167 941.377 504.9C941.643 504.633 942.043 504.5 942.577 504.5C943.577 504.5 944.077 504.9 944.077 505.7C944.077 506.433 943.61 507.267 942.677 508.2C940.877 510 939.21 511.6 937.677 513C936.143 514.4 934.677 515.633 933.277 516.7C931.077 518.3 928.643 519.767 925.977 521.1C923.31 522.433 920.81 523.1 918.477 523.1ZM946.491 521.5C941.091 521.5 938.391 518.467 938.391 512.4C938.391 509.6 939.057 506.667 940.391 503.6C941.724 500.533 943.491 497.7 945.691 495.1C947.891 492.433 950.324 490.267 952.991 488.6C955.724 486.933 958.491 486.1 961.291 486.1C963.757 486.1 965.557 487.033 966.691 488.9C967.824 490.767 968.391 492.833 968.391 495.1C968.391 498.1 967.791 501.167 966.591 504.3C965.391 507.367 963.757 510.2 961.691 512.8C959.624 515.4 957.291 517.5 954.691 519.1C952.091 520.7 949.357 521.5 946.491 521.5ZM946.391 518.3C946.791 518.3 947.024 518.267 947.091 518.2C949.691 517.867 952.091 516.933 954.291 515.4C956.491 513.867 958.391 511.967 959.991 509.7C961.657 507.367 962.924 504.867 963.791 502.2C964.657 499.533 965.091 496.9 965.091 494.3C965.091 492.767 964.657 491.567 963.791 490.7C962.924 489.833 961.824 489.4 960.491 489.4C958.557 489.4 956.491 490.2 954.291 491.8C952.157 493.4 950.124 495.433 948.191 497.9C946.324 500.367 944.791 502.967 943.591 505.7C942.391 508.367 941.791 510.767 941.791 512.9C941.791 516.5 943.324 518.3 946.391 518.3ZM968.191 524.5C967.125 524.5 966.591 524.067 966.591 523.2C966.591 522.867 966.725 522.467 966.991 522C967.258 521.467 967.491 521.033 967.691 520.7L976.691 502.6C980.558 494.733 982.491 490.367 982.491 489.5C982.491 488.567 982.958 488.1 983.891 488.1C985.158 488.1 985.791 488.767 985.791 490.1C985.791 490.567 985.491 491.567 984.891 493.1C984.291 494.633 983.525 496.367 982.591 498.3C980.991 501.767 979.658 504.433 978.591 506.3C980.591 503.967 982.625 501.767 984.691 499.7C986.758 497.633 988.858 495.667 990.991 493.8C997.325 488.267 1002.19 485.5 1005.59 485.5C1007.92 485.5 1009.09 486.6 1009.09 488.8C1009.09 490.8 1007.39 495.3 1003.99 502.3C1000.59 509.367 998.891 513.833 998.891 515.7C998.891 516.567 999.191 517 999.791 517C999.991 517 1000.29 516.933 1000.69 516.8C1001.16 516.6 1001.62 516.5 1002.09 516.5C1003.22 516.5 1003.79 517.033 1003.79 518.1C1003.79 519.433 1002.36 520.1 999.491 520.1C998.158 520.1 997.191 519.8 996.591 519.2C995.991 518.533 995.691 517.667 995.691 516.6C995.691 513.4 997.325 508.533 1000.59 502C1003.86 495.533 1005.49 491.633 1005.49 490.3C1005.49 489.5 1005.19 489.1 1004.59 489.1C1003.12 489.1 1000.76 490.333 997.491 492.8C993.958 495.467 990.425 498.533 986.891 502C983.358 505.467 979.991 509.433 976.791 513.9L969.791 523.6C969.391 524.2 968.858 524.5 968.191 524.5ZM1059.26 526.3C1054.99 526.3 1050.96 525.6 1047.16 524.2C1043.42 522.8 1040.39 520.8 1038.06 518.2C1035.72 515.6 1034.56 512.533 1034.56 509C1034.56 507.867 1034.76 506.667 1035.16 505.4C1035.69 503.667 1036.29 502.8 1036.96 502.8C1037.96 502.8 1038.46 503.367 1038.46 504.5C1038.46 504.967 1038.32 505.6 1038.06 506.4C1037.79 507.2 1037.66 507.967 1037.66 508.7C1037.66 511.633 1038.66 514.2 1040.66 516.4C1042.66 518.533 1045.22 520.167 1048.36 521.3C1051.56 522.433 1054.89 523 1058.36 523C1065.89 523 1072.29 521.2 1077.56 517.6C1080.29 515.733 1082.56 513.5 1084.36 510.9C1086.16 508.233 1087.06 505.4 1087.06 502.4C1087.06 499.667 1086.36 497.4 1084.96 495.6C1083.62 493.8 1081.76 492.267 1079.36 491C1076.96 489.667 1074.19 488.467 1071.06 487.4C1062.12 484.267 1057.66 480.467 1057.66 476C1057.66 473.6 1058.56 471.3 1060.36 469.1C1062.16 466.9 1064.36 464.967 1066.96 463.3C1069.56 461.567 1072.06 460.267 1074.46 459.4C1077.99 458.067 1081.26 457.167 1084.26 456.7C1087.32 456.167 1090.16 455.9 1092.76 455.9C1096.29 455.9 1098.79 456.733 1100.26 458.4C1101.72 460 1102.46 462 1102.46 464.4C1102.46 466.267 1101.99 468.067 1101.06 469.8C1100.19 471.533 1098.99 473.033 1097.46 474.3C1095.72 475.767 1094.32 476.5 1093.26 476.5C1092.12 476.5 1091.56 475.967 1091.56 474.9C1091.56 474.3 1091.86 473.867 1092.46 473.6C1096.92 471.333 1099.16 468.233 1099.16 464.3C1099.16 462.567 1098.66 461.3 1097.66 460.5C1096.72 459.633 1095.09 459.2 1092.76 459.2C1090.62 459.2 1088.22 459.433 1085.56 459.9C1082.96 460.367 1080.29 461.067 1077.56 462C1075.16 462.867 1072.72 464.033 1070.26 465.5C1067.79 466.967 1065.72 468.567 1064.06 470.3C1062.46 472.033 1061.66 473.767 1061.66 475.5C1061.66 479.167 1065.19 482.1 1072.26 484.3C1084.46 488.167 1090.56 494.1 1090.56 502.1C1090.56 504.5 1089.99 506.867 1088.86 509.2C1087.79 511.533 1086.36 513.667 1084.56 515.6C1082.82 517.533 1080.96 519.2 1078.96 520.6C1076.09 522.6 1072.96 524.033 1069.56 524.9C1066.22 525.833 1062.79 526.3 1059.26 526.3ZM1099.59 555.1C1095.52 555.1 1093.49 552.7 1093.49 547.9C1093.49 543.833 1094.35 539.9 1096.09 536.1C1096.35 535.433 1096.79 535.1 1097.39 535.1C1098.59 535.1 1099.19 535.633 1099.19 536.7C1099.19 536.967 1099.09 537.3 1098.89 537.7C1098.75 538.167 1098.59 538.667 1098.39 539.2C1097.92 540.467 1097.55 541.8 1097.29 543.2C1097.02 544.6 1096.89 546.067 1096.89 547.6C1096.89 549.333 1097.12 550.5 1097.59 551.1C1098.05 551.7 1098.65 552 1099.39 552C1101.12 552 1103.15 551.2 1105.49 549.6C1107.89 548 1110.35 545.467 1112.89 542C1114.69 539.533 1116.55 536.6 1118.49 533.2C1120.42 529.8 1122.49 525.9 1124.69 521.5C1127.62 515.7 1130.32 509.8 1132.79 503.8C1131.12 505.933 1129.39 508 1127.59 510C1125.79 512 1123.85 513.867 1121.79 515.6C1116.25 520.333 1111.65 522.7 1107.99 522.7C1103.59 522.7 1101.39 520.167 1101.39 515.1C1101.39 513.3 1101.72 511.133 1102.39 508.6C1103.12 506.067 1104.12 503.167 1105.39 499.9C1105.59 499.367 1105.69 498.933 1105.69 498.6C1105.69 498.2 1105.79 497.8 1105.99 497.4C1107.05 495.067 1108.82 492.467 1111.29 489.6C1111.82 489 1112.29 488.7 1112.69 488.7C1113.69 488.7 1114.19 489.433 1114.19 490.9C1107.72 500.433 1104.49 508.5 1104.49 515.1C1104.49 517.9 1105.59 519.3 1107.79 519.3C1110.25 519.3 1113.69 517.6 1118.09 514.2C1121.22 511.8 1124.12 509.1 1126.79 506.1C1129.45 503.033 1131.85 499.867 1133.99 496.6C1135.45 494.4 1136.62 492.467 1137.49 490.8C1138.42 489.067 1138.99 487.9 1139.19 487.3C1139.52 486.3 1139.99 485.8 1140.59 485.8C1141.85 485.8 1142.49 486.333 1142.49 487.4C1142.49 487.933 1142.22 488.9 1141.69 490.3C1141.22 491.633 1140.62 493.233 1139.89 495.1C1138.82 497.833 1137.29 501.5 1135.29 506.1C1133.29 510.7 1130.79 516.167 1127.79 522.5C1124.05 530.367 1120.39 536.8 1116.79 541.8C1114.12 545.6 1111.19 548.767 1107.99 551.3C1104.85 553.833 1102.05 555.1 1099.59 555.1ZM1144.98 525.3C1141.25 525.3 1139.38 524.067 1139.38 521.6C1139.38 520.067 1139.91 518.533 1140.98 517C1142.11 515.467 1143.45 514.067 1144.98 512.8C1146.51 511.533 1147.95 510.567 1149.28 509.9C1149.68 509.7 1150.21 509.5 1150.88 509.3C1151.61 509.1 1152.21 509 1152.68 509C1153.21 509 1153.48 509.2 1153.48 509.6C1153.48 509.933 1153.11 510.3 1152.38 510.7C1149.31 512.167 1146.91 513.933 1145.18 516C1143.51 518 1142.68 519.633 1142.68 520.9C1142.68 522.1 1143.71 522.7 1145.78 522.7C1147.51 522.7 1149.38 522.267 1151.38 521.4C1153.45 520.533 1155.38 519.4 1157.18 518C1159.05 516.6 1160.58 515.1 1161.78 513.5C1162.98 511.9 1163.58 510.367 1163.58 508.9C1163.58 507.9 1163.25 507 1162.58 506.2C1161.98 505.4 1160.98 504.8 1159.58 504.4L1152.98 502.4C1151.31 501.867 1150.11 501.167 1149.38 500.3C1148.65 499.433 1148.28 498.467 1148.28 497.4C1148.28 495.4 1149.01 493.6 1150.48 492C1152.01 490.4 1153.91 489.133 1156.18 488.2C1158.45 487.267 1160.65 486.8 1162.78 486.8C1164.91 486.8 1166.78 487.333 1168.38 488.4C1169.98 489.4 1170.78 490.767 1170.78 492.5C1170.78 493.5 1170.48 494.433 1169.88 495.3C1169.35 496.167 1168.71 496.6 1167.98 496.6C1166.85 496.6 1166.28 496.133 1166.28 495.2C1166.28 494.867 1166.45 494.467 1166.78 494C1167.18 493.467 1167.38 492.967 1167.38 492.5C1167.38 490.5 1165.85 489.5 1162.78 489.5C1161.11 489.5 1159.45 489.867 1157.78 490.6C1156.18 491.267 1154.85 492.167 1153.78 493.3C1152.71 494.433 1152.18 495.667 1152.18 497C1152.18 498.333 1153.51 499.4 1156.18 500.2L1162.58 502.2C1164.51 502.8 1165.85 503.633 1166.58 504.7C1167.31 505.7 1167.68 506.833 1167.68 508.1C1167.68 511.1 1165.85 514.2 1162.18 517.4C1156.25 522.667 1150.51 525.3 1144.98 525.3ZM1174.04 528.9C1172.77 528.9 1172.14 527.9 1172.14 525.9C1172.14 522.967 1173.77 517.833 1177.04 510.5C1180.37 503.167 1185.3 493.567 1191.84 481.7C1189.3 481.7 1186.9 482.033 1184.64 482.7C1182.44 483.3 1181.27 484.067 1181.14 485C1181.07 485.267 1180.9 485.533 1180.64 485.8C1180.44 486 1180.1 486.1 1179.64 486.1C1178.57 486.1 1178.04 485.567 1178.04 484.5C1178.04 482.767 1179.4 481.333 1182.14 480.2C1184.87 479.067 1188.7 478.5 1193.64 478.5L1200.54 467.1C1201 466.367 1201.5 465.567 1202.04 464.7C1202.57 463.767 1203.17 462.767 1203.84 461.7C1204.5 460.767 1205.27 460.3 1206.14 460.3C1206.67 460.3 1207.07 460.467 1207.34 460.8C1207.6 461.067 1207.74 461.367 1207.74 461.7C1207.74 462.7 1206.27 465.367 1203.34 469.7C1199.67 475.1 1197.7 478.033 1197.44 478.5C1198.44 478.5 1199.94 478.6 1201.94 478.8C1203.94 478.933 1206.3 479.167 1209.04 479.5C1210.04 479.567 1210.54 480.067 1210.54 481C1210.54 482.067 1209.94 482.6 1208.74 482.6C1208.27 482.6 1207.34 482.533 1205.94 482.4C1204.54 482.2 1203.04 482.033 1201.44 481.9C1199.84 481.767 1198.47 481.733 1197.34 481.8L1195.84 481.9C1182.3 505.7 1175.57 520.5 1175.64 526.3L1175.74 527.1V527.3C1175.74 528.367 1175.17 528.9 1174.04 528.9ZM1206.79 523.8C1203.99 523.8 1201.79 522.833 1200.19 520.9C1198.59 518.967 1197.79 516.6 1197.79 513.8C1197.79 509 1199.39 504.067 1202.59 499C1203.46 497.6 1204.46 496.233 1205.59 494.9C1206.72 493.5 1207.96 492.167 1209.29 490.9C1211.29 488.967 1213.39 487.367 1215.59 486.1C1217.79 484.833 1219.92 484.2 1221.99 484.2C1225.39 484.2 1227.09 485.8 1227.09 489C1227.09 493 1224.76 496.633 1220.09 499.9C1215.76 502.833 1211.49 504.3 1207.29 504.3C1206.56 504.3 1205.89 504.267 1205.29 504.2C1204.76 504.067 1204.26 503.933 1203.79 503.8C1203.12 505.067 1202.52 506.7 1201.99 508.7C1201.46 510.7 1201.19 512.433 1201.19 513.9C1201.19 518.3 1203.12 520.5 1206.99 520.5C1210.12 520.5 1213.09 519.967 1215.89 518.9C1218.69 517.767 1222.02 515.667 1225.89 512.6C1228.29 510.733 1230.09 509.233 1231.29 508.1C1232.49 506.967 1233.79 505.767 1235.19 504.5C1235.59 504.233 1235.96 504.1 1236.29 504.1C1236.62 504.1 1236.96 504.2 1237.29 504.4C1237.62 504.6 1237.79 504.9 1237.79 505.3C1237.79 506.033 1237.12 507.067 1235.79 508.4C1234.66 509.467 1233.46 510.6 1232.19 511.8C1230.92 512.933 1228.92 514.533 1226.19 516.6C1223.26 518.867 1220.06 520.633 1216.59 521.9C1213.12 523.167 1209.86 523.8 1206.79 523.8ZM1206.69 501.1C1208.82 501.1 1210.86 500.767 1212.79 500.1C1214.72 499.433 1216.56 498.467 1218.29 497.2C1222.16 494.333 1224.09 491.633 1224.09 489.1C1224.09 487.967 1223.39 487.4 1221.99 487.4C1219.32 487.4 1216.22 489.033 1212.69 492.3C1210.96 493.9 1209.52 495.367 1208.39 496.7C1207.32 497.967 1206.32 499.367 1205.39 500.9C1205.79 501.033 1206.22 501.1 1206.69 501.1ZM1228.55 525.4C1227.41 525.4 1226.85 524.867 1226.85 523.8C1226.85 523.733 1227.25 522.9 1228.05 521.3C1228.85 519.7 1229.98 517.333 1231.45 514.2L1236.55 503.5C1238.61 499.167 1240.08 495.733 1240.95 493.2C1241.88 490.667 1242.35 489.033 1242.35 488.3C1242.35 487.233 1242.88 486.7 1243.95 486.7C1245.01 486.7 1245.55 487.233 1245.55 488.3C1245.55 489.167 1245.25 490.533 1244.65 492.4C1244.11 494.2 1243.21 496.533 1241.95 499.4L1236.85 511C1250.78 493.4 1261.28 484.6 1268.35 484.6C1269.68 484.6 1270.71 485.167 1271.45 486.3C1272.18 487.367 1272.55 488.567 1272.55 489.9C1272.55 493.1 1270.25 498.667 1265.65 506.6C1269.18 503 1272.75 499.4 1276.35 495.8C1280.01 492.133 1283.68 488.533 1287.35 485C1288.28 484.133 1289.05 483.7 1289.65 483.7C1290.45 483.7 1291.11 484.1 1291.65 484.9C1292.18 485.633 1292.45 486.433 1292.45 487.3C1292.45 487.967 1292.15 488.8 1291.55 489.8C1290.68 491.267 1289.88 493.033 1289.15 495.1C1288.41 497.1 1287.58 499.367 1286.65 501.9C1285.58 504.767 1284.81 507.267 1284.35 509.4C1283.88 511.533 1283.65 513.267 1283.65 514.6C1283.65 516.267 1284.05 517.5 1284.85 518.3C1285.65 519.033 1286.45 519.4 1287.25 519.4C1288.65 519.4 1290.18 519.033 1291.85 518.3C1293.51 517.567 1294.88 516.833 1295.95 516.1C1298.08 514.7 1300.31 512.967 1302.65 510.9C1304.98 508.767 1307.21 506.633 1309.35 504.5C1309.61 504.233 1310.01 504.1 1310.55 504.1C1311.55 504.1 1312.05 504.5 1312.05 505.3C1312.05 506.033 1311.58 506.867 1310.65 507.8C1307.98 510.467 1305.58 512.767 1303.45 514.7C1301.31 516.567 1299.28 518.1 1297.35 519.3C1296.08 520.033 1294.55 520.8 1292.75 521.6C1290.95 522.4 1289.01 522.8 1286.95 522.8C1285.01 522.8 1283.38 522.2 1282.05 521C1280.78 519.8 1280.15 517.233 1280.15 513.3C1280.15 511.767 1280.41 509.967 1280.95 507.9C1281.48 505.767 1282.28 503.4 1283.35 500.8L1288.65 488.2L1274.35 502.6C1272.68 504.267 1271.31 505.667 1270.25 506.8C1269.18 507.933 1268.31 508.867 1267.65 509.6C1266.38 510.933 1265.25 512.233 1264.25 513.5C1263.31 514.767 1262.51 515.867 1261.85 516.8C1261.38 517.533 1260.85 517.9 1260.25 517.9C1259.11 517.9 1258.55 517.433 1258.55 516.5C1258.55 514.433 1260.41 509.667 1264.15 502.2C1267.88 494.733 1269.75 490.267 1269.75 488.8C1269.75 488.133 1269.01 487.8 1267.55 487.8C1261.61 487.8 1251.05 497.5 1235.85 516.9C1234.58 518.7 1232.48 521.4 1229.55 525C1229.35 525.267 1229.01 525.4 1228.55 525.4Z" fill="black"/>
</svg>
